<svg width="37" height="37" viewBox="0 0 37 37" fill="none" xmlns="http://www.w3.org/2000/svg">
<circle cx="18.5" cy="18.5" r="18.5" fill="#D9D9D9"/>
<path d="M12.4526 30.5813C11.9189 30.2255 11.445 29.7874 11.0485 29.2833C10.6163 28.7607 10.2156 28.2111 9.84763 27.6422C8.98356 26.3783 8.30688 24.996 7.8386 23.5384C7.27427 21.8431 7 20.2201 7 18.6321C7 16.86 7.38375 15.3138 8.13093 14.0158C8.68807 12.9988 9.50622 12.1487 10.5011 11.553C11.4652 10.9551 12.5724 10.6276 13.7065 10.605C14.1016 10.605 14.5305 10.6614 14.9819 10.7743C15.3093 10.8646 15.7043 11.0113 16.1896 11.1919C16.8104 11.4289 17.149 11.5756 17.2619 11.6095C17.623 11.7449 17.9278 11.8014 18.1648 11.8014C18.3454 11.8014 18.605 11.7449 18.8928 11.6546C19.0564 11.5982 19.3668 11.4966 19.807 11.3047C20.2427 11.1467 20.588 11.0113 20.8623 10.9097C21.2799 10.7856 21.684 10.6727 22.0474 10.6163C22.4876 10.5485 22.9244 10.526 23.3431 10.5598C24.1445 10.6163 24.8781 10.7856 25.5327 11.0339C26.684 11.4966 27.6129 12.219 28.3059 13.246C28.0124 13.4266 27.7415 13.6366 27.4876 13.8668C26.9379 14.3521 26.4718 14.9278 26.0993 15.5655C25.6153 16.4348 25.3649 17.4147 25.3725 18.4097C25.3894 19.6321 25.6998 20.7065 26.3205 21.6377C26.7726 22.3282 27.362 22.9183 28.0519 23.3713C28.4018 23.6084 28.7088 23.772 29 23.8792C28.8646 24.3025 28.7156 24.7144 28.5429 25.1208C28.1512 26.0316 27.6851 26.9041 27.1321 27.728C26.6445 28.4391 26.2607 28.9695 25.9695 29.3194C25.5158 29.8612 25.0779 30.2675 24.6377 30.5576C24.1524 30.8792 23.5824 31.0497 22.9989 31.0497C22.6038 31.0666 22.2088 31.0158 21.8318 30.9063C21.5045 30.7991 21.1817 30.6783 20.8657 30.5418C20.5345 30.3903 20.1932 30.262 19.8442 30.158C19.4154 30.0459 18.9737 29.9901 18.5305 29.9921C18.079 29.9921 17.6388 30.0485 17.2212 30.1558C16.8713 30.2551 16.5327 30.377 16.1975 30.5226C15.7235 30.7201 15.4131 30.8499 15.2325 30.9063C14.8687 31.014 14.4938 31.0802 14.1151 31.1038C13.5282 31.1038 12.9819 30.9345 12.4379 30.5959L12.4526 30.5813ZM20.1885 9.74605C19.421 10.1298 18.6919 10.2923 17.9616 10.2381C17.8488 9.50903 17.9616 8.75959 18.2664 7.93905C18.5372 7.23928 18.8984 6.60722 19.395 6.04289C19.9142 5.45598 20.535 4.97065 21.2348 4.62077C21.9797 4.23702 22.6907 4.03386 23.3679 4C23.4582 4.76749 23.3679 5.5237 23.0858 6.33634C22.826 7.05821 22.4443 7.73013 21.9571 8.3228C21.4661 8.90971 20.8567 9.39503 20.167 9.74492L20.1885 9.74605Z" fill="black"/>
</svg>
