<svg width="24" height="25" viewBox="0 0 24 25" fill="none" xmlns="http://www.w3.org/2000/svg">
<path d="M6 5C6 3.80653 6.47411 2.66193 7.31802 1.81802C8.16193 0.974106 9.30653 0.5 10.5 0.5L13.5 0.5C14.6935 0.5 15.8381 0.974106 16.682 1.81802C17.5259 2.66193 18 3.80653 18 5V8C18.7956 8 19.5587 8.31607 20.1213 8.87868C20.6839 9.44129 21 10.2044 21 11V21.5C21 22.2956 20.6839 23.0587 20.1213 23.6213C19.5587 24.1839 18.7956 24.5 18 24.5H6C5.20435 24.5 4.44129 24.1839 3.87868 23.6213C3.31607 23.0587 3 22.2956 3 21.5V11C3 10.2044 3.31607 9.44129 3.87868 8.87868C4.44129 8.31607 5.20435 8 6 8V5ZM9 8H15V5C15 4.60218 14.842 4.22064 14.5607 3.93934C14.2794 3.65804 13.8978 3.5 13.5 3.5H10.5C10.1022 3.5 9.72064 3.65804 9.43934 3.93934C9.15804 4.22064 9 4.60218 9 5V8ZM13.5 15.5C13.5 15.1022 13.342 14.7206 13.0607 14.4393C12.7794 14.158 12.3978 14 12 14C11.6022 14 11.2206 14.158 10.9393 14.4393C10.658 14.7206 10.5 15.1022 10.5 15.5V17C10.5 17.3978 10.658 17.7794 10.9393 18.0607C11.2206 18.342 11.6022 18.5 12 18.5C12.3978 18.5 12.7794 18.342 13.0607 18.0607C13.342 17.7794 13.5 17.3978 13.5 17V15.5Z" fill="#707070"/>
</svg>
