<svg width="150" height="151" viewBox="0 0 150 151" fill="none" xmlns="http://www.w3.org/2000/svg">
<circle cx="75" cy="75.5" r="74.5" fill="white" stroke="#02B68A"/>
<circle cx="73.75" cy="59.25" r="23.75" fill="#B7DAB0"/>
<path d="M74.3457 132.374L55.615 113.977C51.0654 109.508 50.9998 102.198 55.4684 97.6479C59.9371 93.0982 67.2479 93.0326 71.7976 97.5013L90.5283 115.899L74.3457 132.374Z" fill="#FFD0C6"/>
<path d="M58.3696 116.474L77.4191 97.7012C81.7685 93.4151 88.7691 93.4664 93.0552 97.8158C97.3414 102.165 97.2901 109.166 92.9406 113.452L73.8912 132.224L58.3696 116.474Z" fill="#FFD0C6"/>
<path d="M44.3177 70.6729C38.9709 75.3096 31.6546 86.9778 45.1634 96.5571" stroke="#D9D9D9" stroke-width="3"/>
<path d="M104.999 96.1565C109.836 90.9896 115.901 78.6248 101.471 70.5001" stroke="#D9D9D9" stroke-width="3"/>
<path d="M35.625 97.375H45.625V88.625" stroke="#D9D9D9" stroke-width="3"/>
<path d="M111.153 70.6866L101.257 69.25L100 77.9093" stroke="#D9D9D9" stroke-width="3"/>
</svg>
