<svg width="37" height="37" viewBox="0 0 37 37" fill="none" xmlns="http://www.w3.org/2000/svg">
<circle cx="18.5" cy="18.5" r="18.5" fill="#D9D9D9"/>
<path d="M19 16.4279V20.2H25.2388C24.9867 21.8179 23.3542 24.9428 19 24.9428C15.2463 24.9428 12.1809 21.8363 12.1809 18C12.1809 14.1638 15.2472 11.0572 19 11.0572C21.1358 11.0572 22.5668 11.9638 23.3863 12.7521L26.3691 9.87558C24.4533 8.08717 21.9691 7 19 7C12.9179 7 8 11.9179 8 18C8 24.0821 12.9179 29 19 29C25.3488 29 29.56 24.5368 29.56 18.2512C29.56 17.5288 29.4821 16.977 29.3867 16.4279H19Z" fill="black"/>
</svg>
