<svg width="120" height="120" viewBox="0 0 120 120" fill="none" xmlns="http://www.w3.org/2000/svg">
<circle cx="60" cy="60" r="59.5" fill="white" stroke="#02B68A"/>
<circle cx="59" cy="47" r="19" fill="#B7DAB0"/>
<path d="M59.4766 105.5L44.492 90.7816C40.8523 87.2067 40.7998 81.358 44.3748 77.7183C47.9497 74.0786 53.7984 74.0261 57.4381 77.601L72.4226 92.3189L59.4766 105.5Z" fill="#FFD0C6"/>
<path d="M46.6958 92.7788L61.9354 77.761C65.4149 74.3321 71.0154 74.3731 74.4443 77.8526C77.8732 81.3322 77.8322 86.9326 74.3526 90.3616L59.113 105.379L46.6958 92.7788Z" fill="#FFD0C6"/>
<path d="M35.4541 56.1384C31.1766 59.8477 25.3236 69.1822 36.1306 76.8457" stroke="#D9D9D9" stroke-width="3"/>
<path d="M83.9998 76.5251C87.8689 72.3917 92.7211 62.4998 81.1767 56" stroke="#D9D9D9" stroke-width="3"/>
<path d="M28.5 77.5H36.5V70.5" stroke="#D9D9D9" stroke-width="3"/>
<path d="M88.9226 56.1493L81.0056 55L80 61.9274" stroke="#D9D9D9" stroke-width="3"/>
</svg>
