<svg width="24" height="24" viewBox="0 0 24 24" fill="none" xmlns="http://www.w3.org/2000/svg">
<path d="M6 22V13.694C6 12.129 6 11.346 6.215 10.608C6.429 9.869 6.845 9.218 7.68 7.915L10.336 3.765C11.088 2.587 11.465 2 12 2C12.535 2 12.912 2.588 13.664 3.764L16.32 7.915C17.154 9.218 17.57 9.869 17.785 10.608C18 11.346 18 12.128 18 13.694V22" stroke="black" stroke-width="1.5" stroke-linecap="round" stroke-linejoin="round"/>
<path d="M7 11C7.632 11.323 8.489 11.973 9.28 12C10.299 12.032 10.987 11.137 12 11.137C13.013 11.137 13.701 12.032 14.72 11.999C15.511 11.973 16.369 11.323 17 11M12 12V22M10 5H14" stroke="black" stroke-width="1.5" stroke-linecap="round" stroke-linejoin="round"/>
</svg>
