<svg width="200" height="200" viewBox="0 0 200 200" fill="none" xmlns="http://www.w3.org/2000/svg">
<circle cx="100" cy="100" r="99.5" fill="white" stroke="#02B68A"/>
<circle cx="98.3332" cy="78.3333" r="31.6667" fill="#B7DAB0"/>
<path d="M99.1274 175.833L74.1532 151.303C68.087 145.344 67.9995 135.597 73.9578 129.531V129.531C79.916 123.464 89.6638 123.377 95.73 129.335L120.704 153.865L99.1274 175.833Z" fill="#FFD0C6"/>
<path d="M77.8262 154.631L103.225 129.602C109.025 123.887 118.359 123.955 124.074 129.754V129.754C129.789 135.554 129.72 144.888 123.921 150.603L98.5216 175.632L77.8262 154.631Z" fill="#FFD0C6"/>
<path d="M59.0903 93.564C51.9612 99.7462 42.2061 115.304 60.2178 128.076" stroke="#D9D9D9" stroke-width="3"/>
<path d="M139.999 127.542C146.448 120.653 154.535 104.166 135.294 93.3335" stroke="#D9D9D9" stroke-width="3"/>
<path d="M47.5 129.167H60.8333V117.5" stroke="#D9D9D9" stroke-width="3"/>
<path d="M148.205 93.5821L135.01 91.6668L133.334 103.212" stroke="#D9D9D9" stroke-width="3"/>
</svg>
