<svg width="23" height="23" viewBox="0 0 23 23" fill="none" xmlns="http://www.w3.org/2000/svg">
<path d="M14.9426 2.90105C14.0684 1.95725 12.8474 1.4375 11.4998 1.4375C10.1449 1.4375 8.9199 1.9541 8.04977 2.89207C7.1702 3.84037 6.74164 5.12918 6.84227 6.52086C7.04172 9.26648 9.13104 11.5 11.4998 11.5C13.8685 11.5 15.9542 9.26693 16.1568 6.52176C16.2588 5.14266 15.8275 3.85654 14.9426 2.90105ZM19.406 21.5625H3.59352C3.38655 21.5652 3.18158 21.5217 2.99353 21.4352C2.80547 21.3487 2.63906 21.2214 2.50641 21.0625C2.21442 20.7135 2.09672 20.2369 2.18387 19.7548C2.56301 17.6516 3.74625 15.8848 5.60602 14.6445C7.25824 13.5435 9.35115 12.9375 11.4998 12.9375C13.6484 12.9375 15.7413 13.5439 17.3935 14.6445C19.2533 15.8844 20.4365 17.6512 20.8157 19.7544C20.9028 20.2364 20.7851 20.713 20.4931 21.0621C20.3605 21.221 20.1941 21.3484 20.0061 21.435C19.818 21.5216 19.613 21.5651 19.406 21.5625Z" fill="#02B68A"/>
</svg>
